<svg width="34" height="28" viewBox="0 0 34 28" fill="none" xmlns="http://www.w3.org/2000/svg">
<g clip-path="url(#clip0_76481_7)">
<path d="M0.208008 27.7362C0.208008 25.8162 0.208008 23.9602 0.208008 22.1682C0.272008 20.3122 0.336008 18.6162 0.400008 17.0802C0.592008 11.5762 1.45601 7.44817 2.99201 4.69617C4.59201 1.88017 7.60001 0.472168 12.016 0.472168L13.168 5.36817C10.672 5.43217 9.07201 6.26417 8.36801 7.86416C7.66401 9.46417 7.31201 11.5122 7.31201 14.0082H14.032V27.7362H0.208008ZM19.888 27.7362C19.888 25.8162 19.888 23.9602 19.888 22.1682C19.952 20.3122 20.016 18.6162 20.08 17.0802C20.272 11.5762 21.136 7.44817 22.672 4.69617C24.272 1.88017 27.28 0.472168 31.696 0.472168L32.848 5.36817C30.352 5.43217 28.752 6.26417 28.048 7.86416C27.344 9.46417 26.992 11.5122 26.992 14.0082H33.712V27.7362H19.888Z" fill="#F7654A"/>
</g>
<defs>
<clipPath id="clip0_76481_7">
<rect width="34" height="28" fill="white"/>
</clipPath>
</defs>
</svg>
